# xmcd CD database file
#
# Track frame offsets:
#	150
#	12860
#	24892
#	37856
#	50038
#	61695
#	74673
#	84342
#	99065
#	111605
#	124467
#	137830
#	152283
#	163266
#	174571
#	188140
#	199291
#	212905
#	225439
#	237201
#	252071
#	265472
#	273072
#	288227
#	302203
#
# Disc length: 4218 seconds
#
# Revision: 0
# Processed by: cddbd v1.5.2PL0 Copyright (c) Steve Scherf et al.
# Submitted via: ACXtractor (MTCDDB.DLL V2003.07.15)
#
DISCID=5a107819
DTITLE=Doc Williams and The Border Riders (with Chickie Williams) - The world'
DTITLE=s Original WWVA
DYEAR=1947
DGENRE=Other
TTITLE0=Title 01 Silver Bell
TTITLE1=Title 02 Broken Memories
TTITLE2=Title 03 Beyond the Sunset
TTITLE3=Title 04 Bright Red Horizon
TTITLE4=Title 05 Merry Maiden Polka
TTITLE5=Title 06 Willy Roy, The Crippled Boy
TTITLE6=Title 07 Red Wing
TTITLE7=Title 08 My Old Brown Coat and Me
TTITLE8=Title 09 Roses Are Blooming
TTITLE9=Title 10 Snow Deer
TTITLE10=Title 11 Mary of the Wild Moor
TTITLE11=Title 12 Sweet hour of Prayer
TTITLE12=Title 13 I love You Little Darling
TTITLE13=Title 14 The Heaven Express
TTITLE14=Title 15 Why Should I Cry over Someone
TTITLE15=Title 16 God Bless and keep you Tonight
TTITLE16=Title 17 Nightwind Waltz
TTITLE17=Title 18 The Cat Came Back
TTITLE18=Title 19 Weary, Tired, and Blue
TTITLE19=Title 20 Don't Break Her Heart Boy
TTITLE20=Title 21 Fiddler Joe
TTITLE21=Title 22 The Parlor is a Pleasant Place 
TTITLE22=Title 23 In the Baggage Coach Ahead
TTITLE23=Title 24 Picture Turned Toward the Wall
TTITLE24=Title 25 You Don't Love me (But I'll Always Care)
EXTD=ID3G:  12 YEAR: 1947
EXTT0=
EXTT1=
EXTT2=
EXTT3=
EXTT4=
EXTT5=
EXTT6=
EXTT7=
EXTT8=
EXTT9=
EXTT10=
EXTT11=
EXTT12=
EXTT13=
EXTT14=
EXTT15=
EXTT16=
EXTT17=
EXTT18=
EXTT19=
EXTT20=
EXTT21=
EXTT22=
EXTT23=
EXTT24=
PLAYORDER=
